<svg id="vuesax_bulk_map" data-name="vuesax/bulk/map" xmlns="http://www.w3.org/2000/svg" width="57.515" height="57.515" viewBox="0 0 57.515 57.515">
  <g id="map">
    <path id="Vector" d="M57.515,0V57.515H0V0Z" fill="#0b8648" opacity="0"/>
    <path id="Vector-2" data-name="Vector" d="M21.784,16.631H1.7a13.251,13.251,0,0,1-1.7-.1L16.536,0,30.627,14.091A14.64,14.64,0,0,1,21.784,16.631Z" transform="translate(17.015 36.091)" fill="#0b8648" opacity="0.4"/>
    <path id="Vector-3" data-name="Vector" d="M16.631,21.784a14.64,14.64,0,0,1-2.54,8.843L0,16.536,16.536,0a13.251,13.251,0,0,1,.1,1.7Z" transform="translate(36.091 17.015)" fill="#0b8648" opacity="0.4"/>
    <path id="Vector-4" data-name="Vector" d="M45.389,42.849a9.847,9.847,0,0,1-2.54,2.54L28.758,31.3,12.222,47.833a14.321,14.321,0,0,1-4.194-.887C2.9,45.078,0,40.524,0,34.006V13.923C0,5.2,5.2,0,13.923,0H34.006c6.518,0,11.072,2.9,12.941,8.028a14.321,14.321,0,0,1,.887,4.194L31.3,28.758Z" transform="translate(4.793 4.793)" fill="#0b8648" opacity="0.4"/>
    <path id="Vector-5" data-name="Vector" d="M37.361,34.821a9.847,9.847,0,0,1-2.54,2.54L20.729,23.27,4.194,39.805A14.321,14.321,0,0,1,0,38.919l.935-.935L38.919,0a14.321,14.321,0,0,1,.887,4.194L23.27,20.729Z" transform="translate(12.821 12.821)" fill="#0b8648"/>
    <path id="Vector-6" data-name="Vector" d="M4.315,16.081C1.893,13.78-.79,10.113.218,5.729A7.461,7.461,0,0,1,7.693,0a7.508,7.508,0,0,1,7.478,5.752c1.007,4.361-1.678,8.028-4.1,10.329a4.953,4.953,0,0,1-3.38,1.342A4.844,4.844,0,0,1,4.315,16.081Z" transform="translate(14.162 13.253)" fill="#0b8648"/>
  </g>
</svg>
